<svg width="30" height="30" viewBox="0 0 30 30" fill="none" xmlns="http://www.w3.org/2000/svg">
<g clip-path="url(#clip0_3107_3266)">
<path d="M22.9526 19.42L21.1851 17.65L22.9526 15.8825C23.5372 15.3031 24.0015 14.6139 24.319 13.8545C24.6364 13.0952 24.8008 12.2806 24.8026 11.4575C24.8044 10.6344 24.6436 9.81913 24.3295 9.05837C24.0153 8.29761 23.554 7.60639 22.972 7.0244C22.39 6.4424 21.6988 5.98109 20.9381 5.66695C20.1773 5.35281 19.362 5.19203 18.5389 5.19383C17.7159 5.19563 16.9013 5.35999 16.1419 5.67746C15.3825 5.99493 14.6933 6.45926 14.1139 7.0438L12.3464 8.81255L10.5776 7.04505L12.3476 5.27755C13.9887 3.63652 16.2144 2.7146 18.5351 2.7146C20.8559 2.7146 23.0816 3.63652 24.7226 5.27755C26.3637 6.91857 27.2856 9.14428 27.2856 11.465C27.2856 13.7858 26.3637 16.0115 24.7226 17.6525L22.9526 19.42ZM19.4176 22.955L17.6489 24.7225C16.0079 26.3636 13.7821 27.2855 11.4614 27.2855C9.14062 27.2855 6.91491 26.3636 5.27388 24.7225C3.63286 23.0815 2.71094 20.8558 2.71094 18.535C2.71094 16.2143 3.63286 13.9886 5.27388 12.3475L7.04263 10.58L8.81013 12.35L7.04263 14.1175C6.4581 14.697 5.99376 15.3862 5.67629 16.1455C5.35882 16.9049 5.19447 17.7195 5.19267 18.5426C5.19087 19.3657 5.35165 20.181 5.66579 20.9417C5.97993 21.7025 6.44124 22.3937 7.02324 22.9757C7.60523 23.5577 8.29645 24.019 9.05721 24.3331C9.81796 24.6473 10.6333 24.8081 11.4563 24.8063C12.2794 24.8045 13.094 24.6401 13.8534 24.3226C14.6128 24.0052 15.3019 23.5408 15.8814 22.9563L17.6489 21.1888L19.4176 22.955ZM18.5326 9.6963L20.3014 11.465L11.4626 20.3025L9.69388 18.535L18.5326 9.6963Z" fill="#303030"/>
</g>
<defs>
<clipPath id="clip0_3107_3266">
<rect width="30" height="30" fill="white"/>
</clipPath>
</defs>
</svg>
